<svg width="292" height="47" viewBox="0 0 292 47" fill="none" xmlns="http://www.w3.org/2000/svg">
<path d="M30.1193 13.0398H24.8011C24.5966 11.9034 24.2159 10.9034 23.6591 10.0398C23.1023 9.17613 22.4204 8.44318 21.6136 7.8409C20.8068 7.23863 19.9034 6.78409 18.9034 6.47727C17.9148 6.17045 16.8636 6.01704 15.75 6.01704C13.7386 6.01704 11.9375 6.52272 10.3466 7.53409C8.76704 8.54545 7.51704 10.0284 6.59658 11.983C5.68749 13.9375 5.23295 16.3239 5.23295 19.142C5.23295 21.983 5.68749 24.3807 6.59658 26.3352C7.51704 28.2898 8.77272 29.767 10.3636 30.767C11.9545 31.767 13.7443 32.267 15.7329 32.267C16.8352 32.267 17.8807 32.1193 18.8693 31.8239C19.8693 31.517 20.7727 31.0682 21.5795 30.4773C22.3864 29.8864 23.0682 29.1648 23.625 28.3125C24.1932 27.4489 24.5852 26.4602 24.8011 25.3466L30.1193 25.3636C29.8352 27.0795 29.2841 28.6591 28.4659 30.1023C27.6591 31.5341 26.6193 32.7727 25.3466 33.8182C24.0852 34.8523 22.642 35.6534 21.017 36.2216C19.392 36.7898 17.6193 37.0739 15.6989 37.0739C12.6761 37.0739 9.98295 36.358 7.61931 34.9261C5.25567 33.483 3.39204 31.4205 2.0284 28.7386C0.676128 26.0568 -8.22544e-06 22.858 -8.22544e-06 19.142C-8.22544e-06 15.4148 0.68181 12.2159 2.04545 9.54545C3.40908 6.86363 5.27272 4.80681 7.63636 3.375C9.99999 1.93181 12.6875 1.21022 15.6989 1.21022C17.5511 1.21022 19.2784 1.47727 20.8807 2.01136C22.4943 2.53409 23.9432 3.30681 25.2273 4.32954C26.5114 5.34091 27.5739 6.57954 28.4148 8.04545C29.2557 9.5 29.8239 11.1648 30.1193 13.0398ZM40.6294 21.0511V36.5966H35.5328V1.6875H40.5612V14.6761H40.885C41.4987 13.267 42.4362 12.1477 43.6975 11.3182C44.9589 10.4886 46.6066 10.0739 48.6407 10.0739C50.4362 10.0739 52.0044 10.4432 53.3453 11.1818C54.6975 11.9205 55.743 13.0227 56.4816 14.4886C57.2316 15.9432 57.6066 17.7614 57.6066 19.9432V36.5966H52.51V20.5568C52.51 18.6364 52.0157 17.1477 51.0271 16.0909C50.0385 15.0227 48.6635 14.4886 46.9021 14.4886C45.6975 14.4886 44.618 14.7443 43.6635 15.2557C42.7203 15.767 41.976 16.517 41.4305 17.5057C40.8964 18.483 40.6294 19.6648 40.6294 21.0511ZM71.5471 37.1761C69.888 37.1761 68.388 36.8693 67.0471 36.2557C65.7062 35.6307 64.6437 34.7273 63.8596 33.5455C63.0869 32.3636 62.7005 30.9148 62.7005 29.1989C62.7005 27.7216 62.9846 26.5057 63.5528 25.5511C64.121 24.5966 64.888 23.8409 65.8539 23.2841C66.8198 22.7273 67.8994 22.3068 69.0925 22.0227C70.2857 21.7386 71.5016 21.5227 72.7403 21.375C74.3085 21.1932 75.5812 21.0455 76.5585 20.9318C77.5357 20.8068 78.246 20.608 78.6891 20.3352C79.1323 20.0625 79.3539 19.6193 79.3539 19.0057V18.8864C79.3539 17.3977 78.9335 16.2443 78.0925 15.4261C77.263 14.608 76.0244 14.1989 74.3766 14.1989C72.6607 14.1989 71.3085 14.5795 70.3198 15.3409C69.3425 16.0909 68.6664 16.9261 68.2914 17.8466L63.5016 16.7557C64.0698 15.1648 64.8994 13.8807 65.9903 12.9034C67.0925 11.9148 68.3596 11.1989 69.7914 10.7557C71.2232 10.3011 72.7289 10.0739 74.3085 10.0739C75.3539 10.0739 76.4619 10.1989 77.6323 10.4489C78.8141 10.6875 79.9164 11.1307 80.9391 11.7784C81.9732 12.4261 82.8198 13.3523 83.4789 14.5568C84.138 15.75 84.4675 17.3011 84.4675 19.2102V36.5966H79.4903V33.017H79.2857C78.9562 33.6761 78.4619 34.3239 77.8028 34.9602C77.1437 35.5966 76.2971 36.125 75.263 36.5455C74.2289 36.9659 72.9903 37.1761 71.5471 37.1761ZM72.655 33.0852C74.0641 33.0852 75.2687 32.8068 76.2687 32.25C77.2801 31.6932 78.0471 30.9659 78.5698 30.0682C79.1039 29.1591 79.371 28.1875 79.371 27.1534V23.7784C79.1891 23.9602 78.8369 24.1307 78.3141 24.2898C77.8028 24.4375 77.2176 24.5682 76.5585 24.6818C75.8994 24.7841 75.2573 24.8807 74.6323 24.9716C74.0073 25.0511 73.4846 25.1193 73.0641 25.1761C72.0755 25.3011 71.1721 25.5114 70.3539 25.8068C69.5471 26.1023 68.8994 26.5284 68.4107 27.0852C67.9335 27.6307 67.6948 28.358 67.6948 29.267C67.6948 30.5284 68.1607 31.483 69.0925 32.1307C70.0244 32.767 71.2119 33.0852 72.655 33.0852ZM90.7759 46.4148V10.4148H95.7532V14.6591H96.1793C96.4748 14.1136 96.9009 13.483 97.4577 12.767C98.0145 12.0511 98.7873 11.4261 99.7759 10.892C100.765 10.3466 102.071 10.0739 103.696 10.0739C105.81 10.0739 107.696 10.608 109.355 11.6761C111.015 12.7443 112.316 14.2841 113.259 16.2955C114.213 18.3068 114.691 20.7273 114.691 23.5568C114.691 26.3864 114.219 28.8125 113.276 30.8352C112.333 32.8466 111.037 34.3977 109.39 35.4886C107.742 36.5682 105.861 37.108 103.747 37.108C102.157 37.108 100.855 36.8409 99.8441 36.3068C98.8441 35.7727 98.06 35.1477 97.4918 34.4318C96.9236 33.7159 96.4861 33.0795 96.1793 32.5227H95.8725V46.4148H90.7759ZM95.7702 23.5057C95.7702 25.3466 96.0373 26.9602 96.5714 28.3466C97.1054 29.733 97.8782 30.8182 98.8895 31.6023C99.9009 32.375 101.14 32.7614 102.605 32.7614C104.128 32.7614 105.401 32.358 106.424 31.5511C107.446 30.733 108.219 29.625 108.742 28.2273C109.276 26.8295 109.543 25.2557 109.543 23.5057C109.543 21.7784 109.282 20.2273 108.759 18.8523C108.247 17.4773 107.475 16.392 106.441 15.5966C105.418 14.8011 104.14 14.4034 102.605 14.4034C101.128 14.4034 99.8782 14.7841 98.8554 15.5455C97.8441 16.3068 97.077 17.3693 96.5543 18.733C96.0316 20.0966 95.7702 21.6875 95.7702 23.5057ZM132.142 10.4148V14.5057H117.841V10.4148H132.142ZM121.677 4.14204H126.773V28.9091C126.773 29.8977 126.921 30.642 127.216 31.142C127.512 31.6307 127.892 31.9659 128.358 32.1477C128.836 32.3182 129.353 32.4034 129.91 32.4034C130.319 32.4034 130.677 32.375 130.983 32.3182C131.29 32.2614 131.529 32.2159 131.699 32.1818L132.62 36.392C132.324 36.5057 131.904 36.6193 131.358 36.733C130.813 36.858 130.131 36.9261 129.313 36.9375C127.972 36.9602 126.722 36.7216 125.563 36.2216C124.404 35.7216 123.466 34.9489 122.75 33.9034C122.035 32.858 121.677 31.5455 121.677 29.9659V4.14204ZM148.303 37.125C145.724 37.125 143.502 36.5739 141.638 35.4716C139.786 34.358 138.354 32.7955 137.343 30.7841C136.343 28.7614 135.843 26.392 135.843 23.6761C135.843 20.9943 136.343 18.6307 137.343 16.5852C138.354 14.5398 139.763 12.9432 141.57 11.7955C143.388 10.6477 145.513 10.0739 147.945 10.0739C149.422 10.0739 150.854 10.3182 152.241 10.8068C153.627 11.2955 154.871 12.0625 155.974 13.108C157.076 14.1534 157.945 15.5114 158.582 17.1818C159.218 18.8409 159.536 20.858 159.536 23.233V25.0398H138.724V21.2216H154.542C154.542 19.8807 154.269 18.6932 153.724 17.6591C153.178 16.6136 152.411 15.7898 151.422 15.1875C150.445 14.5852 149.297 14.2841 147.979 14.2841C146.547 14.2841 145.297 14.6364 144.229 15.3409C143.172 16.0341 142.354 16.9432 141.775 18.0682C141.207 19.1818 140.922 20.392 140.922 21.6989V24.6818C140.922 26.4318 141.229 27.9205 141.843 29.1477C142.468 30.375 143.337 31.3125 144.451 31.9602C145.564 32.5966 146.866 32.9148 148.354 32.9148C149.32 32.9148 150.201 32.7784 150.996 32.5057C151.792 32.2216 152.479 31.8011 153.059 31.2443C153.638 30.6875 154.082 30 154.388 29.1818L159.212 30.0511C158.826 31.4716 158.133 32.7159 157.133 33.7841C156.144 34.8409 154.9 35.6648 153.4 36.2557C151.911 36.8352 150.212 37.125 148.303 37.125ZM164.711 36.5966V10.4148H169.637V14.5739H169.91C170.387 13.1648 171.228 12.0568 172.432 11.25C173.648 10.4318 175.023 10.0227 176.557 10.0227C176.876 10.0227 177.251 10.0341 177.682 10.0568C178.126 10.0795 178.472 10.108 178.722 10.142V15.017C178.518 14.9602 178.154 14.8977 177.631 14.8295C177.109 14.75 176.586 14.7102 176.063 14.7102C174.859 14.7102 173.785 14.9659 172.842 15.4773C171.91 15.9773 171.171 16.6761 170.626 17.5739C170.08 18.4602 169.807 19.4716 169.807 20.608V36.5966H164.711Z" fill="black"/>
<path d="M190.016 36.5966L180.164 1.6875H186.965L193.255 27.3409H193.579L200.295 1.6875H206.482L213.215 27.358H213.522L219.812 1.6875H226.613L216.761 36.5966H210.522L203.533 12.1023H203.261L196.255 36.5966H190.016ZM230.245 36.5966V10.4148H236.416V36.5966H230.245ZM233.347 6.69886C232.37 6.69886 231.529 6.375 230.825 5.72727C230.12 5.06818 229.768 4.2784 229.768 3.35795C229.768 2.42613 230.12 1.63636 230.825 0.988631C231.529 0.329541 232.37 -3.8147e-06 233.347 -3.8147e-06C234.336 -3.8147e-06 235.177 0.329541 235.87 0.988631C236.575 1.63636 236.927 2.42613 236.927 3.35795C236.927 4.2784 236.575 5.06818 235.87 5.72727C235.177 6.375 234.336 6.69886 233.347 6.69886ZM262.974 17.3352L257.349 17.9489C257.19 17.3807 256.912 16.8466 256.514 16.3466C256.127 15.8466 255.605 15.4432 254.946 15.1364C254.287 14.8295 253.48 14.6761 252.525 14.6761C251.241 14.6761 250.162 14.9545 249.287 15.5114C248.423 16.0682 247.997 16.7898 248.008 17.6761C247.997 18.4375 248.275 19.0568 248.843 19.5341C249.423 20.0114 250.377 20.4034 251.707 20.7102L256.173 21.6648C258.65 22.1989 260.491 23.0455 261.696 24.2045C262.912 25.3636 263.525 26.8807 263.537 28.7557C263.525 30.4034 263.042 31.858 262.088 33.1193C261.144 34.3693 259.832 35.3466 258.15 36.0511C256.468 36.7557 254.537 37.108 252.355 37.108C249.15 37.108 246.571 36.4375 244.616 35.0966C242.662 33.7443 241.497 31.8636 241.122 29.4545L247.139 28.875C247.412 30.0568 247.991 30.9489 248.877 31.5511C249.764 32.1534 250.917 32.4545 252.338 32.4545C253.804 32.4545 254.98 32.1534 255.866 31.5511C256.764 30.9489 257.213 30.2045 257.213 29.3182C257.213 28.5682 256.923 27.9489 256.343 27.4602C255.775 26.9716 254.889 26.5966 253.684 26.3352L249.218 25.3977C246.707 24.875 244.849 23.9943 243.644 22.7557C242.44 21.5057 241.843 19.9261 241.855 18.017C241.843 16.4034 242.281 15.0057 243.167 13.8239C244.065 12.6307 245.309 11.7102 246.9 11.0625C248.502 10.4034 250.349 10.0739 252.44 10.0739C255.508 10.0739 257.923 10.7273 259.684 12.0341C261.457 13.3409 262.554 15.108 262.974 17.3352ZM279.736 37.108C277.111 37.108 274.843 36.5625 272.934 35.4716C271.037 34.3693 269.576 32.8125 268.554 30.8011C267.531 28.7784 267.02 26.3977 267.02 23.6591C267.02 20.9659 267.531 18.6023 268.554 16.5682C269.588 14.5227 271.031 12.9318 272.883 11.7955C274.736 10.6477 276.912 10.0739 279.412 10.0739C281.025 10.0739 282.548 10.3352 283.98 10.858C285.423 11.3693 286.696 12.1648 287.798 13.2443C288.912 14.3239 289.787 15.6989 290.423 17.3693C291.059 19.0284 291.378 21.0057 291.378 23.3011V25.1932H269.917V21.0341H285.463C285.451 19.8523 285.196 18.8011 284.696 17.8807C284.196 16.9489 283.497 16.2159 282.599 15.6818C281.713 15.1477 280.679 14.8807 279.497 14.8807C278.236 14.8807 277.128 15.1875 276.173 15.8011C275.218 16.4034 274.474 17.1989 273.94 18.1875C273.417 19.1648 273.15 20.2386 273.139 21.4091V25.0398C273.139 26.5625 273.417 27.8693 273.974 28.9602C274.531 30.0398 275.309 30.8693 276.309 31.4489C277.309 32.017 278.48 32.3011 279.821 32.3011C280.718 32.3011 281.531 32.1761 282.258 31.9261C282.986 31.6648 283.616 31.2841 284.15 30.7841C284.684 30.2841 285.088 29.6648 285.361 28.9261L291.122 29.5739C290.758 31.0966 290.065 32.4261 289.042 33.5625C288.031 34.6875 286.736 35.5625 285.156 36.1875C283.576 36.8011 281.77 37.108 279.736 37.108Z" fill="#8172F8"/>
</svg>
